<?xml version="1.0" encoding="UTF-8"?>
<svg width="40px" height="45px" viewBox="0 0 40 45" version="1.1" xmlns="http://www.w3.org/2000/svg" xmlns:xlink="http://www.w3.org/1999/xlink">
    <!-- Generator: Sketch 51.3 (57544) - http://www.bohemiancoding.com/sketch -->
    <title>Group 21</title>
    <desc>Created with Sketch.</desc>
    <defs></defs>
    <g id="APPLICATION" stroke="none" stroke-width="1" fill="none" fill-rule="evenodd" stroke-linecap="round" stroke-linejoin="round">
        <g id="Teacher-module_application_before-starting-details_desktop" transform="translate(-428.000000, -293.000000)" stroke="#333333">
            <g id="Group-9" transform="translate(265.000000, 264.000000)">
                <g id="Group-4" transform="translate(0.000000, 2.000000)">
                    <g id="Group-21" transform="translate(163.000000, 28.000000)">
                        <path d="M6.80224,22.14768 L8.12704,24.13488 C8.37024,24.49968 8.82624,24.54608 9.13664,24.23408 L12.99264,20.37968" id="Stroke-1"></path>
                        <path d="M6.80224,11.09456 L8.12704,13.08176 C8.37024,13.44816 8.82624,13.49296 9.13664,13.18256 L12.99264,9.32656" id="Stroke-3"></path>
                        <path d="M31.53024,11.53664 L17.38304,11.53664" id="Stroke-5"></path>
                        <path d="M31.53024,22.14768 L17.38304,22.14768" id="Stroke-7"></path>
                        <path d="M6.97088,34.80304 L11.39168,30.38224" id="Stroke-9"></path>
                        <path d="M11.33584,34.80304 L6.91504,30.38224" id="Stroke-11"></path>
                        <path d="M31.53024,32.59376 L17.38304,32.59376" id="Stroke-13"></path>
                        <path d="M38.39984,43.41408 L1.59984,43.41408 C1.15824,43.41408 0.79984,43.05568 0.79984,42.61408 L0.79984,1.01408 C0.79984,0.57248 1.15824,0.21408 1.59984,0.21408 L38.39984,0.21408 C38.84144,0.21408 39.19984,0.57248 39.19984,1.01408 L39.19984,42.61408 C39.19984,43.05568 38.84144,43.41408 38.39984,43.41408 Z" id="Stroke-15"></path>
                    </g>
                </g>
            </g>
        </g>
    </g>
</svg>