<?xml version="1.0" encoding="UTF-8"?>
<svg width="38px" height="43px" viewBox="0 0 38 43" version="1.1" xmlns="http://www.w3.org/2000/svg" xmlns:xlink="http://www.w3.org/1999/xlink">
    <!-- Generator: Sketch 53.2 (72643) - https://sketchapp.com -->
    <title>分组 6</title>
    <desc>Created with Sketch.</desc>
    <g id="APPLICATION" stroke="none" stroke-width="1" fill="none" fill-rule="evenodd">
        <g id="Teacher-module_application_before-starting_desktop" transform="translate(-817.000000, -663.000000)" stroke="#333333">
            <g id="Group-9" transform="translate(268.000000, 261.000000)">
                <g id="Group-7" transform="translate(386.000000, 144.000000)">
                    <g id="分组-6" transform="translate(164.000000, 259.000000)">
                        <path d="M35.25,41 L0.75,41 C0.336,41 0,40.6598519 0,40.2407407 L0,0.759259259 C0,0.340148148 0.336,0 0.75,0 L35.25,0 C35.664,0 36,0.340148148 36,0.759259259 L36,40.2407407 C36,40.6598519 35.664,41 35.25,41 Z" id="Stroke-15" stroke-linecap="round" stroke-linejoin="round"></path>
                        <g id="分组-5" transform="translate(10.000000, 10.000000)" stroke-linecap="round" stroke-linejoin="round">
                            <path d="M16,0 L0,0" id="Stroke-5"></path>
                            <path d="M16,10 L0,10" id="Stroke-5-Copy"></path>
                            <path d="M3.55555556,20 L3.77475828e-14,20" id="Stroke-5-Copy-2"></path>
                        </g>
                        <g id="分组-4" transform="translate(19.000000, 24.000000)">
                            <circle id="椭圆形" cx="6.5" cy="6.5" r="6.5"></circle>
                            <path d="M9.67486392,5.94931273 C9.21582009,6.4739334 8.39827802,7.34393456 8.39827802,7.34393456 C8.39827802,7.34393456 8.5294317,8.29700289 8.60812629,8.94841061 C8.64310101,9.2806793 8.38516027,9.42494478 8.09661741,9.29378515 C7.54576124,9.03584442 6.70636816,8.63363226 6.51837686,8.54181992 C6.32601297,8.62925967 5.48224731,9.02709925 4.92701856,9.28503403 C4.63410311,9.41181513 4.37616239,9.27191629 4.40676451,8.9396595 C4.48108652,8.28825178 4.61661279,7.33955603 4.61661278,7.33955603 C4.61661277,7.33955603 3.7903315,6.47392745 3.32692103,5.94930678 C3.16079264,5.75694289 3.2700953,5.48589036 3.59360693,5.4377979 C4.2581324,5.31975602 5.28551679,5.13176472 5.28551679,5.13176472 C5.28551679,5.13176472 5.84948476,4.16120606 6.2036104,3.56663596 C6.40034688,3.20377109 6.53587314,3.24749097 6.55773605,3.25623613 C6.61894031,3.27372646 6.71512523,3.34804252 6.83753969,3.56663596 C7.18728681,4.161212 7.74251556,5.13177067 7.74251556,5.13177067 C7.74251556,5.13177067 8.75678815,5.31976792 9.41256846,5.43780385 C9.73171344,5.48589631 9.83663758,5.76132142 9.67488177,5.94931273 L9.67486392,5.94931273 Z" id="路径" stroke-width="0.8" fill-rule="nonzero"></path>
                        </g>
                    </g>
                </g>
            </g>
        </g>
    </g>
</svg>