<?xml version="1.0" encoding="UTF-8"?>
<svg width="51px" height="41px" viewBox="0 0 51 41" version="1.1" xmlns="http://www.w3.org/2000/svg" xmlns:xlink="http://www.w3.org/1999/xlink">
    <!-- Generator: Sketch 51.3 (57544) - http://www.bohemiancoding.com/sketch -->
    <title>Group 10</title>
    <desc>Created with Sketch.</desc>
    <defs></defs>
    <g id="APPLICATION" stroke="none" stroke-width="1" fill="none" fill-rule="evenodd" stroke-linejoin="round">
        <g id="Teacher-module_application_before-starting-details_desktop" transform="translate(-807.000000, -292.000000)" stroke="#333333">
            <g id="Group-9" transform="translate(265.000000, 264.000000)">
                <g id="Group-6" transform="translate(386.000000, 0.000000)">
                    <g id="Group-10" transform="translate(155.000000, 28.000000)">
                        <g id="Group-5">
                            <path d="M25.5297171,28.8618119 L2.33194359,15.9784273 C1.84912216,15.7102819 1.67509278,15.1015031 1.94323809,14.6186817 C2.03394303,14.4553587 2.16858531,14.3207104 2.33190418,14.2299981 L25.5296382,1.34526692 C26.1335966,1.00980999 26.8679177,1.00980999 27.471876,1.34526692 L50.6696101,14.2299981 C51.1524194,14.4981652 51.3264214,15.1069518 51.0582543,15.5897612 C50.967542,15.75308 50.8328936,15.8877223 50.6695707,15.9784273 L27.4717972,28.8618119 C26.8678798,29.1972105 26.1336344,29.1972105 25.5297171,28.8618119 Z" id="Stroke-1"></path>
                            <path d="M10.7618771,20.7734852 L10.7618771,30.4889667 C10.7618771,35.8478185 17.8078486,40.1938185 26.5013629,40.1938185 C35.1918486,40.1938185 42.23782,35.8478185 42.23782,30.4889667 L42.23782,20.7734852" id="Stroke-3"></path>
                        </g>
                        <path d="M48.5,17.5 L48.5,30.5" id="Line-7" stroke-linecap="round"></path>
                    </g>
                </g>
            </g>
        </g>
    </g>
</svg>