<?xml version="1.0" encoding="UTF-8"?>
<svg width="40px" height="40px" viewBox="0 0 40 40" version="1.1" xmlns="http://www.w3.org/2000/svg" xmlns:xlink="http://www.w3.org/1999/xlink">
    <!-- Generator: Sketch 51.2 (57519) - http://www.bohemiancoding.com/sketch -->
    <title>Group 4</title>
    <desc>Created with Sketch.</desc>
    <defs>
        <circle id="path-1" cx="19.9705649" cy="19.9705649" r="19.9705649"></circle>
        <polygon id="path-3" points="6.66666667e-05 0.000169117647 19.845 0.000169117647 19.845 22.7319485 6.66666667e-05 22.7319485"></polygon>
    </defs>
    <g id="1.2.-NAVIGATION" stroke="none" stroke-width="1" fill="none" fill-rule="evenodd">
        <g id="Group-4">
            <g id="Bitmap-Copy-16">
                <mask id="mask-2" fill="white">
                    <use xlink:href="#path-1"></use>
                </mask>
                <use id="Mask" fill="#DDDDDD" xlink:href="#path-1"></use>
            </g>
            <g id="Page-1-Copy-4" transform="translate(10.000000, 10.000000)">
                <mask id="mask-4" fill="white">
                    <use xlink:href="#path-3"></use>
                </mask>
                <g id="Clip-2"></g>
                <path d="M13.2610667,14.3599485 C13.2610667,14.9724926 12.7697333,15.4707132 12.1664,15.4707132 C11.5627333,15.4707132 11.0717333,14.9724926 11.0717333,14.3599485 L11.0717333,9.10005147 C11.0717333,8.48784559 11.5627333,7.98928676 12.1664,7.98928676 C12.7697333,7.98928676 13.2610667,8.48784559 13.2610667,9.10005147 L13.2610667,14.3599485 Z M12.1664,4.67559559 C12.7697333,4.67559559 13.2610667,5.17415441 13.2610667,5.78636029 C13.2610667,6.39890441 12.7697333,6.89746324 12.1664,6.89746324 C11.5627333,6.89746324 11.0717333,6.39890441 11.0717333,5.78636029 C11.0717333,5.17415441 11.5627333,4.67559559 12.1664,4.67559559 Z M8.7734,14.3599485 C8.7734,14.9724926 8.2824,15.4707132 7.67873333,15.4707132 C7.07506667,15.4707132 6.58406667,14.9724926 6.58406667,14.3599485 L6.58406667,9.10005147 C6.58406667,8.48784559 7.07506667,7.98928676 7.67873333,7.98928676 C8.2824,7.98928676 8.7734,8.48784559 8.7734,9.10005147 L8.7734,14.3599485 Z M7.67873333,4.67559559 C8.28206667,4.67559559 8.7734,5.17415441 8.7734,5.78636029 C8.7734,6.39890441 8.28206667,6.89746324 7.67873333,6.89746324 C7.07506667,6.89746324 6.58406667,6.39890441 6.58406667,5.78636029 C6.58406667,5.17415441 7.07506667,4.67559559 7.67873333,4.67559559 Z M19.6727333,5.05036029 C19.5147333,3.77149265 19.2250667,2.88091912 18.7617333,2.24672794 C18.5287333,1.92777206 18.2404,1.65650735 17.8804,1.41771324 C17.4570667,1.13697794 16.9207333,0.895139706 16.2864,0.698625 C15.5600667,0.474036765 14.6817333,0.301536765 13.6750667,0.186198529 C12.5994,0.0624044118 11.3367333,0.000169117647 9.9224,0.000169117647 C8.5084,0.000169117647 7.24606667,0.0624044118 6.1704,0.186198529 C5.1634,0.301536765 4.28473333,0.473698529 3.55873333,0.698625 C2.92406667,0.894801471 2.38806667,1.13697794 1.9644,1.417375 C1.6044,1.65616912 1.31606667,1.92709559 1.0834,2.24605147 C0.620066667,2.87990441 0.330733333,3.77013971 0.172066667,5.04866912 C6.66666667e-05,6.437125 6.66666667e-05,8.11849265 6.66666667e-05,10.065375 L6.66666667e-05,10.0684191 C6.66666667e-05,12.0156397 6.66666667e-05,13.6973456 0.172066667,15.0864779 C0.330733333,16.3653456 0.620066667,17.2562574 1.0834,17.8904485 C1.3164,18.2094044 1.6044,18.4803309 1.9644,18.719125 C2.38806667,18.9998603 2.9244,19.2416985 3.55873333,19.4382132 C4.28473333,19.6631397 5.16373333,19.8353015 6.1704,19.9509779 C7.24606667,20.0744338 8.5084,20.1370074 9.9224,20.1370074 C10.0287333,20.1370074 10.1360667,20.1366691 10.2514,20.1356544 L10.8457333,20.1315956 L11.3607333,20.4329632 L13.2484,21.5373015 L13.2497333,21.5379779 L13.2514,21.5389926 L15.2837333,22.7319485 L15.2837333,21.3790074 L15.2837333,19.8234632 L16.7237333,19.2897279 C17.5097333,18.9985074 18.0974,18.6365956 18.5200667,18.1830221 C18.8990667,17.7764632 19.1694,17.2755368 19.3704,16.6065074 C19.5800667,15.9104191 19.7097333,15.050625 19.7777333,13.9013015 C19.8450667,12.7688897 19.8450667,11.4572132 19.8450667,10.0684191 C19.8450667,8.12119853 19.8450667,6.43949265 19.6727333,5.05036029 Z" id="Fill-1" fill="#FFFFFF" mask="url(#mask-4)"></path>
            </g>
        </g>
    </g>
</svg>