<?xml version="1.0" encoding="UTF-8"?>
<svg width="22px" height="22px" viewBox="0 0 22 22" version="1.1" xmlns="http://www.w3.org/2000/svg" xmlns:xlink="http://www.w3.org/1999/xlink">
    <!-- Generator: Sketch 51.1 (57501) - http://www.bohemiancoding.com/sketch -->
    <title>Shape</title>
    <desc>Created with Sketch.</desc>
    <defs></defs>
    <g id="Wallet" stroke="none" stroke-width="1" fill="none" fill-rule="evenodd">
        <g id="14.My-wallet---tablet" transform="translate(-707.000000, -641.000000)" fill-rule="nonzero" stroke="#757575">
            <path d="M716.334597,662 C716.16806,662 716.001497,661.916669 715.918229,661.916669 C715.668423,661.750007 715.50186,661.416657 715.50186,661.166689 L715.50186,653.916679 L708.174045,643.333349 C708.007508,643.083355 707.92424,642.750031 708.090777,642.416681 C708.25734,642.166688 708.507145,642 708.84022,642 L727.159795,642 C727.492895,642 727.742675,642.166662 727.909212,642.416681 C728.075775,642.666674 727.99248,642.999999 727.825943,643.250018 L720.498154,653.916679 L720.498154,659.500016 C720.498154,659.833366 720.331592,660.083334 719.998517,660.250022 L716.667697,661.916669 C716.584429,662 716.50116,662 716.334597,662 Z" id="Shape"></path>
        </g>
    </g>
</svg>