<?xml version="1.0" encoding="utf-8"?>
<!-- Generator: Adobe Illustrator 21.0.0, SVG Export Plug-In . SVG Version: 6.00 Build 0)  -->
<svg version="1.1" id="Layer_1" xmlns="http://www.w3.org/2000/svg" xmlns:xlink="http://www.w3.org/1999/xlink" x="0px" y="0px"
	 viewBox="0 0 200 200" style="enable-background:new 0 0 200 200;" xml:space="preserve">
<style type="text/css">
	.st0{fill:url(#SVGID_1_);}
	.st1{fill:url(#SVGID_2_);}
	.st2{fill:url(#SVGID_3_);}
	.st3{fill:url(#SVGID_4_);}
	.st4{fill:url(#SVGID_5_);}
	.st5{fill:url(#SVGID_6_);}
	.st6{fill:url(#SVGID_7_);}
	.st7{fill:url(#SVGID_8_);}
	.st8{fill:url(#SVGID_9_);}
	.st9{fill:none;stroke:#231F20;stroke-linecap:round;stroke-linejoin:round;stroke-miterlimit:10;}
	.st10{fill:#231F20;}
	.st11{fill:#231F20;stroke:#231F20;stroke-linecap:round;stroke-linejoin:round;stroke-miterlimit:10;}
	.st12{fill:#231F20;stroke:#231F20;stroke-miterlimit:10;}
	.st13{fill:#FFFFFF;stroke:#231F20;stroke-linecap:round;stroke-linejoin:round;stroke-miterlimit:10;}
	.st14{fill:none;stroke:#FFFFFF;stroke-linecap:round;stroke-linejoin:round;stroke-miterlimit:10;}
	.st15{fill:none;stroke:#231F20;stroke-linecap:round;stroke-miterlimit:10;}
	.st16{fill:none;stroke:#231F20;stroke-miterlimit:10;}
	.st17{fill:none;stroke:#FFFFFF;stroke-miterlimit:10;}
</style>
<line class="st9" x1="195.5" y1="177.7" x2="4.5" y2="177.7"/>
<g>
	<path class="st9" d="M107.6,58.1c-0.4,5.8-5,10.3-10.3,10.3h-1c-5.3,0-9.9-4.4-10.3-10.3l-1.3-16.3C84.3,33.9,89.4,27,96.2,27h1.2
		c6.8,0,11.9,6.9,11.4,14.8L107.6,58.1z"/>
	<path class="st9" d="M85.7,53.5c0,0-1.9-4.1-4-3c-2.2,1.2-0.7,6.7,1,8c1.8,1.3,3.4,0,3.4,0"/>
	<path class="st9" d="M108,53.5c0,0,1.9-4.1,4.1-3c2.2,1.2,0.7,6.7-1,8c-1.8,1.3-3.4,0-3.4,0"/>
	<polyline class="st9" points="96.8,49.1 95.1,57.3 96.4,57.6 	"/>
	<circle class="st10" cx="90.3" cy="50.1" r="0.5"/>
	<circle class="st10" cx="103.4" cy="50.1" r="0.5"/>
	<path class="st9" d="M99.4,59.4c0,0.9-0.7,1.6-1.6,1.6"/>
	<path class="st9" d="M89.8,36.6c0,0-1.7,3.8-5,5.2"/>
	<path class="st9" d="M92.4,27.8c-2.7-1.6-4.5-4.5-4.5-7.8c0-5,4-9,9-9c5,0,9,4,9,9c0,3.3-1.8,6.3-4.5,7.8"/>
	<line class="st9" x1="90.1" y1="83.6" x2="90.7" y2="66.5"/>
	<line class="st9" x1="102.9" y1="66.5" x2="103.7" y2="84.4"/>
	<line class="st9" x1="78.2" y1="84.3" x2="90.1" y2="82.7"/>
	<polyline class="st9" points="90.8,133.7 81.3,133.7 78.6,121 71.8,101.7 	"/>
	<polyline class="st9" points="115.7,118.8 112.4,133.7 106.6,133.7 	"/>
	<line class="st9" x1="121.5" y1="102.6" x2="118.3" y2="111.8"/>
	<line class="st9" x1="103.6" y1="82.7" x2="116.4" y2="84.4"/>
	<line class="st9" x1="95.1" y1="159.4" x2="64.6" y2="139.9"/>
	<line class="st9" x1="60.5" y1="151.1" x2="91.8" y2="165.5"/>
	<line class="st9" x1="64.1" y1="96.1" x2="55.3" y2="137.4"/>
	<line class="st9" x1="66.9" y1="141.3" x2="74.5" y2="109.2"/>
	<polyline class="st9" points="91.8,165.5 104.4,166.8 115.3,161.1 118.9,155.7 117.7,154.8 113.9,158.8 106.9,161.1 102.4,161.1 	
		"/>
	<polyline class="st9" points="101.3,162 107.8,157.1 107.3,155.8 103.3,157.3 97.8,157.9 93.5,160.4 	"/>
	<line class="st9" x1="102.4" y1="161.1" x2="102.3" y2="162.2"/>
	<line class="st9" x1="125.5" y1="118.8" x2="120.1" y2="106.6"/>
	<line class="st9" x1="130.8" y1="96.2" x2="144.3" y2="138.2"/>
	<path class="st9" d="M138.1,130.8l-26.2-25l-17,2.4l-2.1,5.2l2.9,5l5.2-1.5v-2.2c0,0,8.7,2.1,11.1-1.5l21.2,31.2"/>
	<polyline class="st9" points="99.3,117.3 98.1,113 100.8,111.1 	"/>
	<polyline class="st9" points="97.5,117.7 95.2,112.9 97.2,109.7 	"/>
	<path class="st9" d="M78.2,84.3c-8.6,1.1-12.4,3.8-14.1,11.8"/>
	<path class="st9" d="M116.4,84.4c9.4,1.2,11.8,3.7,14.3,11.8"/>
	<path class="st9" d="M133.1,144.4c3.7,5.5,15.7,8,11.2-6.2"/>
	<path class="st9" d="M55.3,137.4c-1.5,7.2-0.2,11.2,5.2,13.7"/>
	<path class="st9" d="M71.8,156.4c-3,8.1-5.5,16.4-5.5,21.3"/>
	<path class="st9" d="M81.3,133.7c0,0-2.7,5.7-5.7,13.2"/>
	<polyline class="st9" points="86.1,83.3 97.3,97 107.2,83.2 	"/>
	<path class="st9" d="M74.1,110.9c0,0-9.2-0.4-14.4-7.1"/>
	<path class="st9" d="M122,110.9c0,0,9.2-0.4,14.4-7.1"/>
	<path class="st9" d="M127.4,177.7c0-11.8-15-44-15-44"/>
	<g>
		<ellipse class="st9" cx="98.6" cy="127.4" rx="7.8" ry="1.4"/>
		<path class="st9" d="M106.4,129c0,0.8-3.5,1.4-7.8,1.4s-7.8-0.6-7.8-1.4"/>
		<path class="st9" d="M106.4,130.6c0,0.8-3.5,1.4-7.8,1.4s-7.8-0.6-7.8-1.4"/>
		<path class="st9" d="M98.6,134.8c-1.5,0-2.9-0.1-4-0.2"/>
		<path class="st9" d="M101.6,134.7c-0.3,0-0.6,0-0.9,0.1"/>
		<path class="st9" d="M103.4,134.5c-0.1,0-0.2,0-0.3,0"/>
		<line class="st9" x1="91.7" y1="131.3" x2="91.7" y2="133.9"/>
		<line class="st9" x1="105.6" y1="131.3" x2="105.6" y2="133.9"/>
		<path class="st9" d="M85.9,153.5c0-0.2,0-0.5,0-0.7v-11.7c0-3.7,2.4-6.8,5.8-7.8"/>
		<path class="st9" d="M105.6,133.3c3.3,1,5.8,4.1,5.8,7.8v11.7c0,4.5-3.6,8.1-8.1,8.1"/>
		<path class="st9" d="M109,139.2c-0.4-1.2-1.2-2.3-2.2-3.1"/>
		<line class="st9" x1="109.3" y1="142.3" x2="109.3" y2="141.1"/>
	</g>
	<polyline class="st9" points="117.5,155 116.2,154.1 113.2,157.1 109.3,158.1 	"/>
	<circle class="st9" cx="98.6" cy="146.8" r="8.5"/>
	<path class="st9" d="M100.9,115.7c1.4,0.8,2.3,2.3,2.3,4c0,2.5-2,4.6-4.6,4.6c-2.5,0-4.6-2-4.6-4.6c0-1,0.3-1.9,0.9-2.7"/>
	<g>
		<path class="st9" d="M98.9,146.8H98c-1,0-1.8-0.8-1.8-1.8l0,0c0-1,0.8-1.8,1.8-1.8h0.7"/>
		<path class="st9" d="M98.9,146.8h0.4c1,0,1.8,0.8,1.8,1.8l0,0c0,1-0.8,1.8-1.8,1.8h-1.5"/>
		<path class="st9" d="M97.8,150.5c-0.7,0-1.3-0.4-1.6-1"/>
		<path class="st9" d="M98.9,143.1c0.7,0,1.3,0.4,1.6,0.9"/>
		<line class="st9" x1="98.4" y1="143.1" x2="98.4" y2="141.8"/>
		<line class="st9" x1="98.4" y1="151.8" x2="98.4" y2="150.5"/>
	</g>
	<path class="st11" d="M102.2,67c0,0-4.3,5.5-11.8,6.6l0.3-7c0,0,2,1.7,6.1,1.7C100.3,68.3,102.2,67,102.2,67z"/>
	<polygon class="st11" points="72.1,119.1 72.1,102.6 74.4,109.7 	"/>
	<polygon class="st11" points="121.3,103.2 123,113 120.4,107.2 	"/>
	<polygon class="st11" points="67.5,138.5 64.8,140.1 66.9,141.3 	"/>
	<path class="st10" d="M97.2,27.1c0.8-1,1.3-2.2,1.3-3.6c0-3.1-2.5-5.6-5.6-5.6c-2.2,0-4.1,1.3-5,3.1c0.3,1.5,0.6,2.9,1.5,4.3
		c0.3,0.5,0.7,1,1.1,1.5c0,0,0,0,0,0c0.6,0.4,1.3,0.9,1.9,1.3C93.8,27.1,95.6,26.9,97.2,27.1z"/>
	<path class="st10" d="M102.3,117l-7.1,5.7c0,0-2.1-2.2-0.5-5.5l0.9,1l5.2-1.5v-0.9C100.8,115.9,101.6,116.2,102.3,117z"/>
	<path class="st9" d="M88.3,43.9c1.4-0.5,2.9-0.5,4.2,0.2"/>
	<path class="st9" d="M101.3,43.9c1.4-0.5,2.9-0.5,4.2,0.2"/>
	<ellipse transform="matrix(0.7071 -0.7071 0.7071 0.7071 -8.2718 78.1983)" class="st9" cx="90.3" cy="49.1" rx="3.5" ry="3.5"/>
	<ellipse transform="matrix(0.7071 -0.7071 0.7071 0.7071 -4.4524 87.4192)" class="st9" cx="103.3" cy="49.1" rx="3.5" ry="3.5"/>
	<path class="st9" d="M99.8,49.1c0-1.7-1.4-3-3-3c-1.7,0-3,1.4-3,3"/>
	<path class="st10" d="M124.3,177.7l-57.4-5.2c0,0-0.6,1.6-0.6,5.2H124.3z"/>
	<path class="st9" d="M101.3,36.8c2.3,0.6,4.8,1.1,7.4,1.5"/>
	<path class="st9" d="M97,37.6c3.1,1.1,7,2.1,11.9,2.8"/>
	<path class="st9" d="M88.3,35.8c3.1,1.9,9.6,5,20.5,6.6"/>
	<path class="st9" d="M111.9,113.2c0,0,0.2-0.9,0-1.8"/>
</g>
<g>
	<g>
		<ellipse class="st9" cx="169.4" cy="136.4" rx="9.5" ry="1.8"/>
		<path class="st9" d="M179,138.4c0,1-4.3,1.8-9.5,1.8s-9.5-0.8-9.5-1.8"/>
		<path class="st9" d="M179,140.4c0,1-4.3,1.8-9.5,1.8s-9.5-0.8-9.5-1.8"/>
		<path class="st9" d="M169.4,145.5c-1.8,0-3.5-0.1-5-0.3"/>
		<path class="st9" d="M173.1,145.4c-0.4,0-0.7,0.1-1.1,0.1"/>
		<path class="st9" d="M175.4,145.1c-0.1,0-0.2,0-0.3,0"/>
		<line class="st9" x1="160.9" y1="141.3" x2="160.9" y2="144.4"/>
		<line class="st9" x1="178" y1="141.3" x2="178" y2="144.4"/>
		<path class="st9" d="M153.8,168.6c0-0.3,0-0.6,0-0.9v-14.4c0-4.5,3-8.3,7.1-9.5"/>
		<path class="st9" d="M178,143.8c4.1,1.2,7.1,5,7.1,9.5v14.4c0,5.5-4.5,10-10,10"/>
		<path class="st9" d="M153.8,167.7c0,5.5,4.5,10,10,10"/>
		<path class="st9" d="M182.3,151c-0.5-1.5-1.5-2.8-2.8-3.8"/>
		<line class="st9" x1="182.6" y1="154.7" x2="182.6" y2="153.3"/>
	</g>
	<circle class="st9" cx="169.4" cy="160.4" r="10.5"/>
	<polyline class="st9" points="169.4,149.9 169.4,160.4 159,160.4 	"/>
	<line class="st9" x1="169.4" y1="160.4" x2="179.9" y2="160.4"/>
	<line class="st9" x1="169.4" y1="156.7" x2="179.2" y2="156.7"/>
	<line class="st9" x1="169.4" y1="153" x2="176.9" y2="153"/>
	<line class="st9" x1="159.7" y1="164.1" x2="179.2" y2="164.1"/>
	<line class="st9" x1="162.3" y1="167.8" x2="176.9" y2="167.8"/>
	<circle class="st10" cx="167" cy="157.9" r="0.6"/>
	<circle class="st10" cx="167" cy="155.5" r="0.6"/>
	<circle class="st10" cx="167" cy="153" r="0.6"/>
	<circle class="st10" cx="164.5" cy="157.9" r="0.6"/>
	<circle class="st10" cx="164.5" cy="155.5" r="0.6"/>
	<circle class="st10" cx="162.1" cy="155.5" r="0.6"/>
	<circle class="st10" cx="162.1" cy="157.9" r="0.6"/>
	<circle class="st10" cx="164.5" cy="153" r="0.6"/>
</g>
<g>
	<g>
		<ellipse class="st9" cx="33.7" cy="136.4" rx="9.5" ry="1.8"/>
		<path class="st9" d="M43.2,138.4c0,1-4.3,1.8-9.5,1.8s-9.5-0.8-9.5-1.8"/>
		<path class="st9" d="M43.2,140.4c0,1-4.3,1.8-9.5,1.8s-9.5-0.8-9.5-1.8"/>
		<path class="st9" d="M33.7,145.5c-1.8,0-3.5-0.1-5-0.3"/>
		<path class="st9" d="M37.4,145.4c-0.4,0-0.7,0.1-1.1,0.1"/>
		<path class="st9" d="M39.6,145.1c-0.1,0-0.2,0-0.3,0"/>
		<line class="st9" x1="25.1" y1="141.3" x2="25.1" y2="144.4"/>
		<line class="st9" x1="42.2" y1="141.3" x2="42.2" y2="144.4"/>
		<path class="st9" d="M18.1,168.6c0-0.3,0-0.6,0-0.9v-14.4c0-4.5,3-8.3,7.1-9.5"/>
		<path class="st9" d="M42.2,143.8c4.1,1.2,7.1,5,7.1,9.5v14.4c0,5.5-4.5,10-10,10"/>
		<path class="st9" d="M18,167.7c0,5.5,4.5,10,10,10"/>
		<path class="st9" d="M46.5,151c-0.5-1.5-1.5-2.8-2.8-3.8"/>
		<line class="st9" x1="46.9" y1="154.7" x2="46.9" y2="153.3"/>
	</g>
	<circle class="st9" cx="33.7" cy="160.4" r="10.5"/>
</g>
<polygon class="st10" points="30.6,157.3 31.6,159.3 33.9,159.7 32.2,161.2 32.6,163.5 30.6,162.4 28.6,163.5 29,161.2 27.4,159.7 
	29.6,159.3 "/>
<circle class="st10" cx="36.5" cy="155.9" r="0.6"/>
<circle class="st10" cx="36.5" cy="164.5" r="0.6"/>
<circle class="st10" cx="39.3" cy="158.4" r="0.6"/>
<circle class="st10" cx="39.3" cy="162.1" r="0.6"/>
</svg>
