<?xml version="1.0" encoding="UTF-8"?>
<svg width="24px" height="24px" viewBox="0 0 24 24" version="1.1" xmlns="http://www.w3.org/2000/svg" xmlns:xlink="http://www.w3.org/1999/xlink">
    <!-- Generator: Sketch 55.2 (78181) - https://sketchapp.com -->
    <title>primiumBadge</title>
    <desc>Created with Sketch.</desc>
    <defs>
        <linearGradient x1="100%" y1="50%" x2="0%" y2="50%" id="linearGradient-1">
            <stop stop-color="#764BA2" offset="0%"></stop>
            <stop stop-color="#667EEA" offset="100%"></stop>
        </linearGradient>
        <linearGradient x1="100%" y1="50%" x2="0%" y2="50%" id="linearGradient-2">
            <stop stop-color="#764BA2" offset="0%"></stop>
            <stop stop-color="#667EEA" offset="100%"></stop>
        </linearGradient>
    </defs>
    <g id="primiumBadge" stroke="none" stroke-width="1" fill="none" fill-rule="evenodd">
        <g>
            <path d="M15,16.7148875 L15,21.5321196 L12.014288,20 L9,21.5321196 L9,16.7148875 L9.86147775,16.5816947 L10.5910068,17.3058675 C11.3708462,18.0799812 12.6291538,18.0799812 13.4089932,17.3058675 L14.1385223,16.5816947 L15,16.7148875 Z M11.7108177,16.8439262 C11.9030485,16.8638448 12.0969515,16.8638448 12.2891823,16.8439262 C12.1008655,16.9006283 11.8991345,16.9006283 11.7108177,16.8439262 Z" id="Combined-Shape" fill="url(#linearGradient-1)"></path>
            <path d="M8.21119453,15.7068297 C8.04396864,15.6099537 7.88709787,15.4959804 7.74328771,15.3668755 C7.64731428,15.2406319 7.58006687,15.0896886 7.55292462,14.9223129 L7.34797154,13.6584472 C7.32255936,13.5017402 7.22423853,13.3664132 7.08305411,13.2938196 L5.94438035,12.7083417 C5.79358408,12.6308059 5.67080903,12.5202058 5.58040166,12.3899182 C5.50205533,12.213251 5.44213603,12.0288384 5.40167715,11.8398608 C5.39823714,11.6813158 5.43255511,11.519673 5.5089775,11.3683095 L6.08604861,10.2253522 C6.1575998,10.0836367 6.1575998,9.91636331 6.08604861,9.77464777 L5.5089775,8.63169051 C5.43255511,8.48032697 5.39823714,8.31868422 5.40167715,8.16013923 C5.44213603,7.97116164 5.50205533,7.78674898 5.58040166,7.61008177 C5.67080903,7.47979419 5.79358408,7.36919405 5.94438035,7.29165833 L7.08305411,6.70618038 C7.22423853,6.63358683 7.32255936,6.49825982 7.34797154,6.34155281 L7.55292462,5.07768708 C7.58006687,4.91031144 7.64731428,4.75936811 7.74328771,4.63312451 C7.88709787,4.50401956 8.04396864,4.39004627 8.21119453,4.2931703 C8.36091675,4.24090556 8.52525298,4.22359353 8.69282408,4.24950164 L9.95816581,4.44513567 C10.1150558,4.46939237 10.2741423,4.41770206 10.3868112,4.30586033 L11.2955034,3.40383987 C11.4158429,3.28438395 11.5589694,3.20179526 11.7108177,3.15607382 C11.9030485,3.1361552 12.0969515,3.1361552 12.2891823,3.15607382 C12.4410306,3.20179526 12.5841571,3.28438395 12.7044966,3.40383987 L13.6131888,4.30586033 C13.7258577,4.41770206 13.8849442,4.46939237 14.0418342,4.44513567 L15.3071759,4.24950164 C15.474747,4.22359353 15.6390832,4.24090556 15.7888055,4.2931703 C15.9560314,4.39004627 16.1129021,4.50401956 16.2567123,4.63312451 C16.3526857,4.75936811 16.4199331,4.91031144 16.4470754,5.07768708 L16.6520285,6.34155281 C16.6774406,6.49825982 16.7757615,6.63358683 16.9169459,6.70618038 L18.0556196,7.29165833 C18.2064159,7.36919405 18.329191,7.47979419 18.4195983,7.61008177 C18.4979447,7.78674898 18.557864,7.97116164 18.5983228,8.16013923 C18.6017629,8.31868422 18.5674449,8.48032697 18.4910225,8.63169051 L17.9139514,9.77464777 C17.8424002,9.91636331 17.8424002,10.0836367 17.9139514,10.2253522 L18.4910225,11.3683095 C18.5674449,11.519673 18.6017629,11.6813158 18.5983228,11.8398608 C18.557864,12.0288384 18.4979447,12.213251 18.4195983,12.3899182 C18.329191,12.5202058 18.2064159,12.6308059 18.0556196,12.7083417 L16.9169459,13.2938196 C16.7757615,13.3664132 16.6774406,13.5017402 16.6520285,13.6584472 L16.4470754,14.9223129 C16.4199331,15.0896886 16.3526857,15.2406319 16.2567123,15.3668755 C16.1129021,15.4959804 15.9560314,15.6099537 15.7888055,15.7068297 C15.6390832,15.7590944 15.474747,15.7764065 15.3071759,15.7504984 L14.0418342,15.5548643 C13.8849442,15.5306076 13.7258577,15.5822979 13.6131888,15.6941397 L12.7044966,16.5961601 C12.5841571,16.7156161 12.4410306,16.7982047 12.2891823,16.8439262 C12.0969515,16.8638448 11.9030485,16.8638448 11.7108177,16.8439262 C11.5589694,16.7982047 11.4158429,16.7156161 11.2955034,16.5961601 L10.3868112,15.6941397 C10.2741423,15.5822979 10.1150558,15.5306076 9.95816581,15.5548643 L8.69282408,15.7504984 C8.52525298,15.7764065 8.36091675,15.7590944 8.21119453,15.7068297 Z M10.9160251,9.6066499 C10.7628489,9.37688556 10.4524142,9.31479862 10.2226499,9.46797485 C9.99288556,9.62115108 9.93079862,9.93158575 10.0839749,10.1613501 L10.7463749,11.1549501 C11.042137,11.600541 11.6421568,11.66015 12.0207534,11.2815534 L13.9487534,9.35355339 C14.1440155,9.15829124 14.1440155,8.84170876 13.9487534,8.64644661 C13.7534912,8.45118446 13.4369088,8.45118446 13.2416466,8.64644661 L11.4621918,10.4259014 L10.9160251,9.6066499 Z" id="Combined-Shape" fill="url(#linearGradient-2)"></path>
            <rect id="Rectangle" fill="#FFFFFF" opacity="0" x="0" y="0" width="24" height="24"></rect>
        </g>
    </g>
</svg>