<?xml version="1.0" standalone="no"?><!DOCTYPE svg PUBLIC "-//W3C//DTD SVG 1.1//EN" "http://www.w3.org/Graphics/SVG/1.1/DTD/svg11.dtd"><svg t="1525418998565" class="icon" style="" viewBox="0 0 1071 1024" version="1.1" xmlns="http://www.w3.org/2000/svg" p-id="1314" xmlns:xlink="http://www.w3.org/1999/xlink" width="12" height="12"><defs><style type="text/css"></style></defs><path d="M1069.18365 387.567422a50.040608 50.040608 0 0 0-40.371078-34.043084l-309.691251-45.037815L580.539527 27.867267A49.983541 49.983541 0 0 0 535.806065 0a49.989882 49.989882 0 0 0-44.733463 27.867267L352.490808 308.486523 42.799557 353.524338a49.774299 49.774299 0 0 0-40.371078 34.043084 50.084992 50.084992 0 0 0 12.655987 51.213633l224.136523 218.410893-52.716373 308.486523a50.002564 50.002564 0 0 0 19.884357 48.791494 49.850387 49.850387 0 0 0 52.570537 3.766361l277.005071-145.651646 277.011412 145.651646a50.110355 50.110355 0 0 0 23.19419 5.731971c10.392366 0 20.632557-3.170338 29.363666-9.498332a50.027926 50.027926 0 0 0 19.890698-48.791494l-52.868549-308.486523 224.130182-218.410893a50.351301 50.351301 0 0 0 12.49747-51.213633z" fill="#fec400" p-id="1315"></path></svg>